<svg xmlns="http://www.w3.org/2000/svg" width="64" height="64" viewBox="0 0 64 64" role="img" aria-label="MinorLab">
  <defs>
    <linearGradient id="minorlab-bands" gradientUnits="userSpaceOnUse" x1="6" y1="0" x2="42" y2="48">
      <stop offset="0%" stop-color="#245BB5"/>
      <stop offset="52%" stop-color="#245BB5"/>
      <stop offset="52%" stop-color="#18B7DC"/>
      <stop offset="72%" stop-color="#18B7DC"/>
      <stop offset="72%" stop-color="#FF6B21"/>
      <stop offset="100%" stop-color="#FF6B21"/>
    </linearGradient>
  </defs>
  <path d="M32.16 0C40.91 0 48 12.46 48 27.84C48 38.97 37.69 48 24.96 48C11.18 48 0 33.82 0 16.32C0 7.31 14.4 0 32.16 0Z" transform="translate(9 8)" fill="#F5C443"/>
  <path d="M32.16 0C40.91 0 48 12.46 48 27.84C48 38.97 37.69 48 24.96 48C11.18 48 0 33.82 0 16.32C0 7.31 14.4 0 32.16 0Z" transform="translate(5 4)" fill="url(#minorlab-bands)" stroke="#111111" stroke-width="1.6" stroke-linejoin="round"/>
</svg>
