<svg xmlns="http://www.w3.org/2000/svg" width="512" height="512" viewBox="0 0 512 512">
<g>
<path d="M 386.00 417.41 C353.77,421.12 314.33,419.81 284.10,414.03 C273.44,411.99 250.47,405.70 241.57,402.39 C235.78,400.23 226.92,398.10 217.08,396.48 C199.34,393.57 190.90,391.54 175.50,386.44 C130.47,371.53 88.94,340.47 78.95,314.24 C76.23,307.11 75.32,296.59 76.98,291.56 C78.56,286.78 83.56,281.08 87.70,279.35 C93.04,277.12 100.69,277.63 105.66,280.54 C112.42,284.50 116.07,293.32 114.05,300.82 C112.81,305.42 107.64,310.48 103.18,311.46 C96.92,312.84 89.99,307.23 90.00,300.80 C90.01,295.49 96.56,289.16 99.26,291.86 C99.99,292.59 99.36,293.79 97.15,295.86 C95.42,297.48 94.00,299.77 94.00,300.95 C94.00,303.18 98.10,308.00 100.00,308.00 C102.05,308.00 106.87,305.02 108.44,302.78 C110.60,299.70 110.39,293.16 108.01,289.24 C104.80,283.99 100.44,281.82 94.05,282.29 C89.11,282.66 88.24,283.10 84.82,286.95 C80.69,291.61 79.52,295.64 80.21,302.85 C82.32,324.77 112.66,353.87 153.35,373.00 C172.32,381.93 210.72,393.53 214.19,391.38 C214.72,391.05 211.67,388.54 207.39,385.81 C169.33,361.42 142.53,325.32 125.51,275.50 C119.13,256.82 113.33,228.60 110.93,204.60 C109.24,187.66 110.27,153.42 112.84,141.00 C120.92,102.00 142.21,81.00 177.93,76.81 C201.62,74.03 236.41,81.81 261.50,95.49 C288.41,110.16 311.07,133.43 324.66,160.34 C331.82,174.51 337.88,196.87 339.54,215.25 C339.92,219.51 340.44,223.00 340.69,223.00 C340.94,223.00 346.18,220.53 352.32,217.50 C368.29,209.65 380.68,206.67 395.32,207.17 C404.76,207.50 407.37,207.96 412.12,210.16 C427.05,217.09 434.95,232.00 434.99,253.29 C435.05,292.03 406.65,337.61 365.19,365.30 C348.45,376.48 322.94,387.67 302.12,392.96 C290.45,395.93 267.58,398.99 257.05,398.99 C251.30,399.00 247.97,399.36 248.55,399.92 C249.76,401.08 267.69,406.27 279.78,408.96 C320.58,418.01 380.68,417.03 423.00,406.60 C428.23,405.31 433.06,404.48 433.75,404.74 C435.14,405.27 435.44,407.61 434.21,408.37 C432.30,409.55 397.36,416.10 386.00,417.41 ZM 235.28 394.06 C238.15,394.52 247.54,394.70 256.14,394.45 C296.57,393.29 336.26,380.35 367.44,358.15 C377.58,350.93 397.12,331.70 404.21,321.96 C421.21,298.63 430.02,274.93 429.99,252.64 C429.96,234.01 423.29,221.02 410.36,214.47 C404.79,211.65 403.89,211.50 392.00,211.51 C378.87,211.52 376.06,212.11 362.00,217.79 C355.51,220.42 352.11,222.12 344.40,226.62 L 340.30 229.01 L 339.64 241.50 C337.62,279.26 325.28,313.33 307.67,329.74 C303.32,333.79 300.18,335.00 293.97,335.00 C289.87,335.00 288.47,334.47 285.39,331.77 C280.49,327.47 279.00,323.52 279.00,314.85 C279.00,305.16 281.29,296.51 287.04,284.50 C297.30,263.08 311.17,245.92 330.34,230.95 C335.39,227.00 335.95,226.20 335.54,223.51 C335.29,221.86 334.80,217.35 334.47,213.50 C332.42,190.25 324.07,166.68 310.56,146.00 C303.80,135.66 282.78,114.88 271.84,107.72 C244.40,89.76 215.96,80.64 187.50,80.67 C145.22,80.71 119.63,107.76 114.83,157.48 C113.57,170.60 114.45,201.39 116.47,215.00 C118.47,228.47 119.86,236.73 121.09,242.50 C122.58,249.49 128.00,270.09 128.98,272.50 C129.43,273.60 131.25,278.55 133.03,283.50 C138.74,299.40 150.02,321.09 159.59,334.61 C173.38,354.06 195.34,374.26 213.09,383.80 C216.17,385.45 221.25,388.25 224.37,390.02 C227.50,391.78 232.41,393.60 235.28,394.06 ZM 287.10 326.47 C289.67,329.39 290.89,330.00 294.15,330.00 C296.32,330.00 299.36,329.35 300.90,328.55 C305.03,326.42 313.48,316.76 317.42,309.68 C321.00,303.26 326.76,288.51 329.40,279.00 C332.90,266.45 337.19,234.00 335.35,234.00 C333.42,234.01 319.05,247.13 311.94,255.38 C295.07,274.95 284.00,298.57 284.00,315.00 C284.00,322.44 284.19,323.15 287.10,326.47 Z" fill="rgb(14,13,13)"/>
<path d="M 327.56 233.17 C336.71,225.22 337.62,222.38 329.25,227.09 C320.39,232.07 308.16,240.41 298.90,247.78 C261.10,277.86 233.62,313.10 217.66,352.00 C213.53,362.05 208.69,378.74 209.38,380.54 C209.74,381.48 212.74,383.51 216.64,385.73 C215.33,385.01 214.11,384.34 213.09,383.80 C195.34,374.26 173.38,354.06 159.59,334.61 C150.02,321.09 138.74,299.40 133.03,283.50 C131.25,278.55 129.43,273.60 128.98,272.50 C128.00,270.09 122.58,249.49 121.09,242.50 C119.86,236.73 118.47,228.47 116.47,215.00 C114.45,201.39 113.57,170.60 114.83,157.48 C119.63,107.76 145.22,80.71 187.50,80.67 C215.96,80.64 244.40,89.76 271.84,107.72 C282.78,114.88 303.80,135.66 310.56,146.00 C324.07,166.68 332.42,190.25 334.47,213.50 C334.80,217.35 335.29,221.86 335.54,223.51 C335.95,226.20 335.39,227.00 330.34,230.95 C329.40,231.68 328.47,232.42 327.56,233.17 ZM 281.58 298.04 C284.87,286.71 291.14,274.55 299.68,262.82 C294.94,269.55 290.75,276.75 287.04,284.50 C284.65,289.49 282.86,293.90 281.58,298.04 ZM 219.61 387.36 C225.41,390.45 232.07,393.46 235.06,394.02 C232.17,393.51 227.43,391.74 224.37,390.02 C223.04,389.26 221.35,388.32 219.61,387.36 Z" fill="rgb(31,88,176)"/>
<path d="M 235.28 394.06 C235.21,394.05 235.14,394.04 235.06,394.02 C232.07,393.46 225.41,390.45 219.61,387.36 C218.62,386.81 217.61,386.26 216.64,385.73 C212.74,383.51 209.74,381.48 209.38,380.54 C208.69,378.74 213.53,362.05 217.66,352.00 C233.62,313.10 261.10,277.86 298.90,247.78 C308.16,240.41 320.39,232.07 329.25,227.09 C337.62,222.38 336.71,225.22 327.56,233.17 C316.57,242.12 307.39,251.86 299.68,262.82 C291.14,274.55 284.87,286.71 281.58,298.04 C279.89,303.51 279.10,308.53 279.01,313.80 L 279.01 313.81 L 279.01 313.83 C279.00,314.12 279.00,314.42 279.00,314.71 C279.00,314.74 279.00,314.76 279.00,314.78 L 279.00 314.85 C279.00,323.52 280.49,327.47 285.39,331.77 C288.47,334.47 289.87,335.00 293.97,335.00 C300.13,335.00 303.27,333.81 307.57,329.83 C305.85,331.80 302.89,335.80 300.17,339.89 C296.72,345.05 291.28,352.48 288.08,356.39 C280.55,365.60 263.34,382.14 254.74,388.44 C251.03,391.16 248.00,393.81 248.00,394.32 C248.00,394.41 248.13,394.49 248.38,394.56 C242.49,394.57 237.29,394.38 235.28,394.06 ZM 287.10 326.47 C284.19,323.15 284.00,322.44 284.00,315.00 C284.00,298.57 295.07,274.95 311.94,255.38 C319.05,247.13 333.42,234.01 335.35,234.00 C337.19,234.00 332.90,266.45 329.40,279.00 C326.76,288.51 321.00,303.26 317.42,309.68 C313.48,316.76 305.03,326.42 300.90,328.55 C299.36,329.35 296.32,330.00 294.15,330.00 C290.89,330.00 289.67,329.39 287.10,326.47 ZM 298.13 388.98 C323.58,382.92 347.45,372.38 367.44,358.15 C347.21,372.55 323.40,383.06 298.13,388.98 Z" fill="rgb(36,176,226)"/>
<path d="M 425.98 279.40 C426.16,277.87 425.89,277.00 425.06,277.00 C424.54,277.00 423.86,277.41 423.56,277.91 C423.25,278.41 419.28,281.26 414.75,284.24 C384.28,304.29 350.06,319.25 310.30,329.92 C306.52,330.94 305.47,331.99 300.00,340.16 C296.65,345.18 291.28,352.48 288.08,356.39 C291.28,352.48 296.72,345.05 300.17,339.89 C302.89,335.80 305.85,331.80 307.57,329.83 C307.60,329.80 307.64,329.77 307.67,329.74 C325.28,313.33 337.62,279.26 339.64,241.50 L 340.30 229.01 L 344.40 226.62 C352.11,222.12 355.51,220.42 362.00,217.79 C376.06,212.11 378.87,211.52 392.00,211.51 C403.89,211.50 404.79,211.65 410.36,214.47 C423.29,221.02 429.96,234.01 429.99,252.64 C430.00,261.38 428.65,270.34 425.98,279.40 ZM 419.59 296.20 C415.59,304.77 410.45,313.39 404.21,321.96 C409.84,314.23 415.46,304.57 419.59,296.20 Z" fill="rgb(241,107,33)"/>
<path d="M 425.98 279.40 C424.35,284.97 422.21,290.57 419.59,296.20 C415.46,304.57 409.84,314.23 404.21,321.96 C397.12,331.70 377.58,350.93 367.44,358.15 C347.45,372.38 323.58,382.92 298.13,388.98 L 298.13 388.98 C284.45,392.18 270.34,394.04 256.14,394.45 C253.56,394.52 250.90,394.56 248.38,394.56 C248.13,394.49 248.00,394.41 248.00,394.32 C248.00,393.81 251.03,391.16 254.74,388.44 C263.34,382.14 280.55,365.60 288.08,356.39 C291.28,352.48 296.65,345.18 300.00,340.16 C305.47,331.99 306.52,330.94 310.30,329.92 C350.06,319.25 384.28,304.29 414.75,284.24 C419.28,281.26 423.25,278.41 423.56,277.91 C423.86,277.41 424.54,277.00 425.06,277.00 C425.89,277.00 426.16,277.87 425.98,279.40 Z" fill="rgb(250,190,38)"/>
</g>
</svg>